Coordinates
version=1
nRows=10
nColumns=46
inDegrees=yes

Units are S.I. units (second, meters, Newtons, ...)
Angles are in degrees.

endheader
time	pelvis_tilt	pelvis_list	pelvis_rotation	pelvis_tx	pelvis_ty	pelvis_tz	bb_angle	bb_tx	bb_ty	bb_tz	hip_flexion_r	hip_adduction_r	hip_rotation_r	knee_angle_r	knee_angle_r_beta	ankle_angle_r	subtalar_angle_r	mtp_angle_r	crank_angle_r	hip_flexion_l	hip_adduction_l	hip_rotation_l	knee_angle_l	knee_angle_l_beta	ankle_angle_l	subtalar_angle_l	mtp_angle_l	crank_angle_l	lumbar_extension	lumbar_bending	lumbar_rotation	arm_flex_r	arm_add_r	arm_rot_r	elbow_flex_r	pro_sup_r	wrist_flex_r	wrist_dev_r	arm_flex_l	arm_add_l	arm_rot_l	elbow_flex_l	pro_sup_l	wrist_flex_l	wrist_dev_l
      7.50000000	    -25.32596337	     -1.75061721	      6.91030697	      0.34003550	      1.16063254	     -0.24717013	      0.00000000	      0.50000000	      0.00000000	      0.25000000	     55.51119201	     -1.61971246	      1.38665805	     92.04755472	      1.60653290	    -15.80305072	    -12.33323432	      0.00000000	      0.00000000	     47.24647217	     -3.71891000	      1.21359374	     39.73242647	      0.69346166	    -11.93680417	     -9.35694530	      0.00000000	      0.00000000	    -56.68221992	     -1.57831145	      2.42795301	     32.87890986	    -31.70627837	     12.68020659	     88.39547758	     50.29900890	      0.00000000	      0.00000000	     49.70903330	    -37.94435326	     32.39286051	     88.17121197	     51.49858284	      0.00000000	      0.00000000
      7.50500000	    -25.01819566	     -2.26861404	      6.00585446	      0.34069037	      1.15991373	     -0.24774543	      0.00000000	      0.50000000	      0.00000000	      0.25000000	     56.72696191	     -0.88116643	      1.39724965	     94.00313062	      1.64066414	    -15.44668465	    -11.82571613	      0.00000000	      0.00000000	     45.21561052	     -4.67027060	      0.87112329	     37.20965119	      0.64943093	    -13.36598930	     -9.58842891	      0.00000000	      0.00000000	    -56.46385347	     -1.47700128	      3.47738952	     33.49906362	    -32.42046529	     14.13942898	     87.64492847	     50.32180239	      0.00000000	      0.00000000	     49.14169875	    -37.15767901	     31.97916583	     87.07756683	     51.26973225	      0.00000000	      0.00000000
      7.51000000	    -24.69446940	     -2.92658924	      5.14453028	      0.34124142	      1.15898914	     -0.24807182	      0.00000000	      0.50000000	      0.00000000	      0.25000000	     57.96242849	     -0.06953743	      1.18030264	     95.91057769	      1.67395537	    -15.21836373	    -11.59955418	      0.00000000	      0.00000000	     43.25232434	     -5.79933877	      0.38683042	     34.86994758	      0.60859540	    -14.40127081	     -9.33831382	      0.00000000	      0.00000000	    -56.29395790	     -1.26485208	      4.57362245	     33.90363300	    -32.85396462	     14.95532530	     87.35185098	     50.33942450	      0.00000000	      0.00000000	     48.63504938	    -36.86305219	     31.84036688	     86.56705536	     51.15379789	      0.00000000	      0.00000000
      7.51500000	    -24.42611023	     -3.47473311	      4.39536505	      0.34157502	      1.15801508	     -0.24877176	      0.00000000	      0.50000000	      0.00000000	      0.25000000	     59.27998513	      0.49724126	      0.96618386	     97.74147168	      1.70591050	    -15.00553836	    -11.26378770	      0.00000000	      0.00000000	     41.32311330	     -6.70979025	      0.13522358	     32.56932386	      0.56844194	    -15.47702022	     -8.85103833	      0.00000000	      0.00000000	    -56.09646393	     -1.01787443	      5.56650981	     34.29888222	    -33.46304814	     15.88462925	     87.13565422	     50.39695148	      0.00000000	      0.00000000	     48.28601484	    -36.46424774	     31.75050289	     85.94476107	     51.04306583	      0.00000000	      0.00000000
      7.52000000	    -24.21418386	     -3.96684816	      3.51361724	      0.34195496	      1.15700974	     -0.24939216	      0.00000000	      0.50000000	      0.00000000	      0.25000000	     60.67990540	      1.12011773	      0.86685656	     99.47337877	      1.73613798	    -14.87184455	    -11.20804576	      0.00000000	      0.00000000	     39.42481136	     -7.69897911	     -0.60226141	     30.36468175	      0.52996367	    -16.44279673	     -8.16247727	      0.00000000	      0.00000000	    -55.86128863	     -0.87758228	      6.59651018	     34.65742576	    -34.17013634	     16.87364749	     86.98226234	     50.46713208	      0.00000000	      0.00000000	     47.96915965	    -36.02632288	     31.69934451	     85.32432088	     50.93533053	      0.00000000	      0.00000000
      7.52500000	    -24.03767029	     -4.43542053	      2.73892761	      0.34230385	      1.15600639	     -0.25024446	      0.00000000	      0.50000000	      0.00000000	      0.25000000	     62.09002905	      1.59875819	      0.69588244	    101.10915148	      1.76468760	    -14.69845595	    -10.79581028	      0.00000000	      0.00000000	     37.58924873	     -8.59010084	     -1.35709285	     28.27388734	      0.49347243	    -17.24067528	     -7.30812871	      0.00000000	      0.00000000	    -55.62502257	     -0.65033036	      7.66490591	     35.16466033	    -35.48271273	     18.56310165	     86.94201023	     50.63609011	      0.00000000	      0.00000000	     47.91930992	    -35.29633252	     31.73803829	     84.29816768	     50.78014259	      0.00000000	      0.00000000
      7.53000000	    -24.11956150	     -4.96038099	      2.05085071	      0.34226663	      1.15469226	     -0.25114723	      0.00000000	      0.50000000	      0.00000000	      0.25000000	     63.79206539	      2.01159498	      0.40517839	    102.62184146	      1.79108902	    -14.69625982	    -10.52723189	      0.00000000	      0.00000000	     36.14234306	     -9.44060376	     -1.85587325	     26.38199184	      0.46045262	    -18.04997853	     -6.34936363	      0.00000000	      0.00000000	    -55.18838581	     -0.30142232	      8.47874125	     35.45136382	    -35.79951519	     18.80277497	     86.96508469	     50.65351663	      0.00000000	      0.00000000	     47.57481725	    -35.25784114	     31.81940163	     84.12481877	     50.75887800	      0.00000000	      0.00000000
      7.53500000	    -23.80277507	     -5.01714905	      0.95394211	      0.34275015	      1.15413822	     -0.25133990	      0.00000000	      0.50000000	      0.00000000	      0.25000000	     65.05683084	      2.59917827	      0.73084757	    104.04113322	      1.81586033	    -14.61651177	    -10.18719208	      0.00000000	      0.00000000	     34.02546235	    -10.23969949	     -3.61568344	     24.44881071	      0.42671225	    -18.71249811	     -4.82501692	      0.00000000	      0.00000000	    -55.20992283	     -0.69319062	      9.46984017	     35.79033038	    -37.23159607	     20.35310395	     87.07739175	     50.82504106	      0.00000000	      0.00000000	     47.71278983	    -34.56103345	     31.82030390	     83.33979069	     50.63592372	      0.00000000	      0.00000000
      7.54000000	    -23.64964467	     -5.31240227	      0.14555892	      0.34287026	      1.15348375	     -0.25201774	      0.00000000	      0.50000000	      0.00000000	      0.25000000	     66.44576131	      3.07199134	      0.70555453	    105.26947574	      1.83729895	    -14.71395907	     -9.76891709	      0.00000000	      0.00000000	     32.26655453	    -10.99968087	     -4.76516094	     22.69507925	      0.39610386	    -19.40181803	     -3.29714958	      0.00000000	      0.00000000	    -55.09441669	     -0.63746318	     10.37996169	     36.18031826	    -38.47032016	     21.59805506	     87.33698257	     50.98813668	      0.00000000	      0.00000000	     47.78144783	    -34.08480648	     31.95033626	     82.62312662	     50.54213225	      0.00000000	      0.00000000
      7.54500000	    -23.45741861	     -5.47502792	     -0.55614113	      0.34286853	      1.15292839	     -0.25292283	      0.00000000	      0.50000000	      0.00000000	      0.25000000	     67.77892641	      3.34222928	      0.75313233	    106.41879798	      1.85735841	    -14.57775024	     -9.42854593	      0.00000000	      0.00000000	     30.51212246	    -11.53214349	     -5.82375522	     21.04112884	      0.36723698	    -20.06932596	     -1.61470701	      0.00000000	      0.00000000	    -55.09473112	     -0.57273688	     11.16354914	     36.60044660	    -39.65797314	     22.71125793	     87.67661462	     51.14776862	      0.00000000	      0.00000000	     47.95277767	    -33.68941233	     32.06168194	     81.90967592	     50.44859208	      0.00000000	      0.00000000
